<svg xmlns="http://www.w3.org/2000/svg" viewBox="0 0 750 750">
  <switch>
    <g>
      <path d="M657.8 365.4C652.4 202.9 512.6 74.1 340.2 93.5 202.3 109.1 83.4 234 92.2 385.2c9.8 168.8 146 281.3 294.6 272.7 166.1-9.6 279.9-147.6 271-292.5zm-283 249C240 614.1 135.2 508.1 135.2 372c0-129.6 108.9-237.4 240-237.4 130.9 0 240 108.9 240.2 239.6 0 133-107.6 240.5-240.6 240.2z"/>
      <path d="M375.5 194c-99.9 0-181.6 82.2-181.5 182.5.2 98 82.2 179.6 180.5 179.6 101.2 0 182.4-82.3 181.5-183.9-.8-96.9-83.3-178.2-180.5-178.2zm.4 316.3c-75.2.3-135.9-60.4-135.9-136 0-74.2 60.4-133.6 135.9-133.5 75.6.1 133.8 59.7 133.7 137.1-.1 72-60.8 132.1-133.7 132.4z"/>
      <path d="M418.5 383.8l28 85-69.4-52.5-73.3 57.6 29.4-90.8-72.6-55H351l24.3-74.9 24.7 74.9h89.2l-70.7 55.7z"/>
    </g>
  </switch>
</svg>
