<svg xmlns="http://www.w3.org/2000/svg" viewBox="0 0 750 750">
  <switch>
    <g>
      <path d="M375 45.2C192.9 45.2 45.2 192.9 45.2 375S192.9 704.8 375 704.8 704.8 557.1 704.8 375 557.1 45.2 375 45.2zm0 601.4C225 646.6 103.4 525 103.4 375S225 103.4 375 103.4 646.6 225 646.6 375 525 646.6 375 646.6zm0-486.2c-118.5 0-214.6 96.1-214.6 214.6S256.5 589.6 375 589.6 589.6 493.5 589.6 375 493.5 160.4 375 160.4zm91.3 344.1c-25.8 18.2-57.3 28.9-91.3 28.9-34.6 0-66.7-11.1-92.8-30-39.8-28.8-65.6-75.6-65.6-128.4 0-16.7 2.6-32.8 7.4-48 20.2-63.7 79.6-109.9 149.8-110.4h1.1c70.6 0 130.3 46.1 150.8 109.9 4.9 15.3 7.6 31.6 7.6 48.5.1 53.5-26.4 100.8-67 129.5z" fill="#ed1c24"/>
      <path d="M338.4 327H224c20.2-63.7 79.6-109.9 149.8-110.4L338.4 327zm187.4-.5L432.2 394l34.1 110.5c40.6-28.7 67.1-76 67.1-129.5 0-16.9-2.7-33.2-7.6-48.5zM224 327c-4.8 15.1-7.4 31.3-7.4 48 0 52.8 25.9 99.6 65.6 128.4L315.9 394 224 327zm301.8-.5c-20.5-63.7-80.3-109.9-150.8-109.9h-1.1l36.9 109.9h115zM282.2 503.4c26.1 18.9 58.1 30 92.8 30 34 0 65.5-10.7 91.3-28.9l-92.5-67.6-91.6 66.5z" fill="#2e3192"/>
      <path d="M375 103.4C225 103.4 103.4 225 103.4 375S225 646.6 375 646.6 646.6 525 646.6 375 525 103.4 375 103.4zm0 486.2c-118.5 0-214.6-96.1-214.6-214.6S256.5 160.4 375 160.4 589.6 256.5 589.6 375 493.5 589.6 375 589.6zM432.2 394l34.1 110.5-92.5-67.6-91.5 66.5L315.9 394 224 327h114.4l35.4-110.4 36.9 109.9h115.1L432.2 394z" fill="#fff"/>
    </g>
  </switch>
</svg>
