<svg xmlns="http://www.w3.org/2000/svg" shape-rendering="geometricPrecision" text-rendering="geometricPrecision" image-rendering="optimizeQuality" fill-rule="evenodd" clip-rule="evenodd"><defs><style>.fil0 { fill: ; }
</style></defs><g id="Layer_x0020_1"><g id="_246634648"><path id="_246635272" fill="#fff" class="fil0" d="M20.03.078C13.703.67 9.532 2.945 5.498 7.292a21.139 21.139 0 00-4.15 6.71C-.72 19.454-.45 26.776 2.443 31.924c1.86 3.309 4.645 6.434 7.893 8.404 1.132.687 2.33 1.342 3.614 1.812 5.81 2.128 12.53 1.813 17.977-1.097 2.097-1.12 4.554-3.046 6.048-4.816.94-1.112 1.515-1.76 2.343-3.088.644-1.032 1.33-2.298 1.81-3.619 1.058-2.918 1.53-5.937 1.3-9.457-.575-8.784-6.706-15.936-13.893-18.68C26.903.379 23.268-.223 20.03.079z"/><path id="_246634912" class="fil0" d="M20.323 3.793c-5.242.49-8.699 2.376-12.042 5.978a17.518 17.518 0 00-3.438 5.56c-1.714 4.517-1.49 10.585.907 14.85 1.54 2.742 3.85 5.332 6.54 6.964.938.57 1.93 1.112 2.995 1.502 4.815 1.763 10.383 1.502 14.897-.91 1.738-.928 3.774-2.524 5.012-3.99.778-.922 1.255-1.458 1.942-2.558.533-.856 1.101-1.905 1.498-3 .878-2.418 1.268-4.92 1.078-7.836-.476-7.28-5.557-13.206-11.512-15.48-2.181-.832-5.193-1.33-7.877-1.08z"/><path id="_246634600" fill="#fff" d="M20.301 3.518c-5.322.498-8.832 2.412-12.226 6.07a17.785 17.785 0 00-3.491 5.645c-1.74 4.586-1.513 10.746.921 15.078 1.565 2.783 3.908 5.413 6.64 7.07.953.578 1.96 1.13 3.041 1.525 4.889 1.79 10.542 1.525 15.125-.924 1.765-.942 3.832-2.563 5.089-4.051.79-.936 1.274-1.48 1.971-2.598.542-.868 1.119-1.934 1.522-3.045.891-2.455 1.287-4.996 1.094-7.957-.483-7.39-5.642-13.408-11.688-15.716-2.215-.845-5.273-1.352-7.998-1.097z" fill="#fff"/><path id="_246634576" class="fil0" d="M20.531 6.427c-4.474.418-7.424 2.027-10.276 5.101a14.949 14.949 0 00-2.935 4.746c-1.462 3.854-1.272 9.032.774 12.673 1.315 2.34 3.285 4.55 5.582 5.943.8.485 1.647.949 2.556 1.281 4.108 1.505 8.86 1.282 12.713-.776 1.483-.792 3.22-2.154 4.277-3.406.664-.786 1.071-1.244 1.657-2.183.455-.73.94-1.625 1.279-2.56.749-2.063 1.082-4.198.92-6.687-.407-6.212-4.743-11.27-9.825-13.21-1.861-.71-4.432-1.136-6.722-.922z"/><path id="_246634168" d="M20.794 9.75c-3.504.328-5.815 1.589-8.049 3.996a11.711 11.711 0 00-2.298 3.717c-1.145 3.019-.996 7.074.606 9.925 1.03 1.833 2.573 3.564 4.372 4.655.627.38 1.29.743 2.001 1.003 3.218 1.179 6.94 1.004 9.957-.607 1.162-.621 2.522-1.688 3.35-2.668.52-.616.839-.974 1.298-1.71.356-.571.736-1.272 1.002-2.004.586-1.616.847-3.289.72-5.238-.318-4.865-3.714-8.826-7.695-10.346-1.457-.556-3.47-.89-5.264-.722z" fill="#fff"/><path id="_246634024" fill="#000" d="M18.363 16.89l-7.637 1.22 5.467 5.348-1.27 7.619 6.818-3.53 6.828 3.53-1.278-7.565 5.467-5.392-7.586-1.117-3.434-6.864z"/></g></g></svg>

