<svg viewBox="0 0 124 42" xmlns="http://www.w3.org/2000/svg"><path d="M10.2 8.6C4.8 10.525 1 17.825.9 26.375c-.025 3.775.45 5.5 2 7.025 1.475 1.475 3 1.925 6.1 1.8 2.2-.075 2.6-.175 4.3-1 2.475-1.25 4.2-2.825 4.2-3.9v-.8l-1.175.825c-1.75 1.25-3.075 1.675-5.1 1.675-2.3 0-3.3-.475-3.975-1.875-2.175-4.5 1.125-17.475 5.075-19.875 1.05-.65 2.95-.675 3.5-.05.925 1.025.725 3.35-.35 4.525-.45.475-.475.625-.2.8 1.9 1.225 3.75-.05 3.775-2.6.025-1.975-.625-3.125-2.3-3.975-1.15-.6-1.575-.7-3.475-.7-1.175.025-2.55.175-3.075.35zm108.05 1.675c-.75.125-1.825.275-2.375.35l-1.025.15-.425 2.05c-1.475 7.275-3.525 16.4-3.625 16.3-.075-.075-.65.375-1.3.975-1.725 1.625-2.925 2.15-4.825 2.15-2.375 0-2.8-.425-2.8-2.8v-1.825l1.25-.15c2.45-.3 5.225-2.25 6.275-4.425.625-1.325.75-3.525.25-4.5-.65-1.25-1.65-1.625-4.025-1.5-2.45.125-3.7.75-5.45 2.7-2.1 2.325-3.425 6.125-3.425 9.725.025 4.1 1.825 5.7 6.1 5.475 1.525-.075 2.325-.275 3.275-.75 1.6-.825 3.175-2.1 4-3.175l.625-.875v.75c0 1.375.5 2.55 1.425 3.35.85.75 1 .8 2.475.7 1.7-.1 2.525-.625 3.25-2 .525-1.025.45-1.2-.6-1.2-1.15 0-1.55-.35-1.55-1.35 0-.55 3.075-15.525 4.1-19.975.05-.225.025-.4-.05-.4-.1.025-.8.125-1.55.25zM107.45 20c.125 1.625-.35 2.9-1.525 4.175-1.2 1.3-2.1 1.825-3.15 1.825h-.725l.375-1.425c.45-1.775 1.675-4.225 2.525-5.15.525-.55.85-.675 1.55-.625.85.075.875.1.95 1.2zm3.55 9.6c0 .075-.1.2-.25.275-.125.075-.25.025-.25-.1 0-.15.125-.275.25-.275.15 0 .25.05.25.1zm-87.125-12c-1.3.6-3.1 2.35-4.075 3.925-1.8 2.95-2.65 8.3-1.675 10.625.825 1.975 2.125 2.85 4.25 2.85 1.75 0 2.975-.6 4.325-2.125l1.025-1.15.275 1c.15.575.575 1.25 1.025 1.625 1.925 1.625 6.65.1 7.075-2.275.1-.525.225-1.175.3-1.45.075-.325 0-.275-.275.175-.475.85-1.1 1.2-2.175 1.2-1.825 0-1.85-.6-.2-8.375.7-3.25 1.25-6.075 1.25-6.275 0-.275-.475-.35-2.35-.35-2.475 0-2.65.075-2.65 1.275 0 .25-.1.475-.25.475-.125 0-.25-.175-.25-.375s-.225-.6-.5-.875c-.75-.75-3.45-.7-5.125.1zM29 19.25c.275.275.5.675.5.875 0 .95-1.875 9.1-2.275 9.9-.55 1.125-1.45 1.725-2.55 1.725-1.375 0-1.75-.475-1.875-2.325-.25-3.75 1.675-8.9 3.8-10.2 1-.6 1.775-.6 2.4.025zm10.5-2.025c0 .25-3.475 16.725-3.65 17.325-.125.4.1.45 2.375.45 1.4 0 2.525-.075 2.525-.175 0-.1.625-3.15 1.4-6.8 1.425-6.825 1.575-7.25 2.9-7.925 1.175-.625 1.625-.45 2 .7.35 1.025.425 1.075 1.4 1.15.85.075 1.175-.05 1.675-.55.9-.9.875-2.65-.025-3.575-.55-.55-.8-.625-1.975-.525-1.025.075-1.6.325-2.6 1.025-.7.5-1.325.925-1.4.925-.125 0 0-.725.3-1.825.1-.375-.125-.425-2.4-.425-1.4 0-2.525.1-2.525.225zm17.375.375c-3.325 1.55-5.775 6-6.05 10.925-.15 2.675.1 3.8 1.1 5 .9 1.075 1.85 1.475 3.45 1.475 1.75 0 2.975-.6 4.325-2.125l1.025-1.15.275 1c.15.575.575 1.25 1.025 1.625 1.925 1.625 6.65.1 7.075-2.275.1-.525.225-1.175.3-1.45.075-.325 0-.275-.275.175-.475.85-1.1 1.2-2.175 1.2-1.825 0-1.85-.6-.2-8.375.7-3.25 1.25-6.075 1.25-6.275 0-.275-.475-.35-2.35-.35-2.475 0-2.65.075-2.65 1.275 0 .25-.1.475-.25.475-.125 0-.25-.175-.25-.375s-.225-.6-.5-.875c-.75-.75-3.45-.7-5.125.1zM62 19.25c.275.275.5.675.5.875 0 .95-1.875 9.1-2.275 9.9-.55 1.125-1.45 1.725-2.55 1.725-1.375 0-1.75-.475-1.875-2.325-.25-3.75 1.675-8.9 3.8-10.2 1-.6 1.775-.6 2.4.025zm10.5-2.025c0 .25-3.475 16.725-3.65 17.325-.125.4.1.45 2.375.45 1.4 0 2.525-.075 2.525-.175 0-.1.575-2.875 1.275-6.175C76.3 22.55 76.8 21.1 77.8 20.4c.65-.475 2.1-.525 2.35-.1.35.575.1 2.475-1.125 8.275-.7 3.275-1.275 6.075-1.275 6.2 0 .15.975.225 2.425.175l2.4-.075 1.325-6.15c1.3-6.15 1.6-7.125 2.6-8.175.6-.65 2.025-.75 2.5-.175.475.55.325 2.7-.35 5.75-1.2 5.225-1.125 6.575.375 8.025.625.6.975.725 2.45.8 1.95.125 3.1-.325 4.45-1.75.7-.725.775-.95.65-1.875l-.125-1.05-.625.75c-.5.6-.8.725-1.725.725-1.85 0-1.975-.8-.85-5.45 1.05-4.3 1.175-5.55.65-6.925-.575-1.5-1.625-2.125-3.55-2.125-1.75 0-3.3.675-4.325 1.925l-.725.875-.275-.875c-.475-1.45-1.325-2.025-3.125-2.125-1.75-.125-2.775.225-4 1.375l-.725.675.125-1.05.15-1.05h-2.475c-1.35 0-2.475.1-2.475.225z" fill="#b21f2e"/></svg>
