<svg xmlns="http://www.w3.org/2000/svg" viewBox="0 0 482.59 121.47"><defs><style>.cls-1{fill:#fff}</style></defs><g id="Layer_2" data-name="Layer 2"><g id="Layer_1-2" data-name="Layer 1"><path class="cls-1" d="M0 3.53h29.32l29.13 67.94L87.58 3.53h29.31L67.54 118.66H49.37L0 3.53M131.33 3.53h29.05v115.14h-29.05zM341 28a29.14 29.14 0 00-22.1 9.35q-8.81 9.35-8.81 23.92 0 15 8.73 24.29t22.08 9.29a29.29 29.29 0 0022.25-9.4q8.88-9.39 8.89-24.18t-8.73-24Q354.6 28 341 28M340.39.72A61.26 61.26 0 01371 8.85 59.65 59.65 0 01401.46 61a60.16 60.16 0 01-8.1 30.4 58.36 58.36 0 01-22.07 22.11 61.1 61.1 0 01-30.79 8 57.51 57.51 0 01-42.28-17.58q-17.54-17.6-17.51-42.73 0-26.91 19.78-44.85Q317.85.72 340.39.72zM418.21 3.53h25.55v10.12c5.22-4.76 9.89-8.88 16-11.37s15.92-3.63 22.85.28v21c-6.58-1.32-14.87.65-18.87 2.46-6.6 3-9.81 6.3-12 10.37-3 5.49-4.53 14.07-4.53 30.15l.11 5.61v46.52h-29.11V3.53M207.05 94.02l36.91-59.32h-13.42l-52.71 83.82h96.24l.03-24.53-61.05.03"/><path class="cls-1" d="M221.02 87.01h13.45l48.14-83.48h-101v24.21l75.33-.02-36.92 59.29"/></g></g></svg>